<!DOCTYPE svg PUBLIC "-//W3C//DTD SVG 20010904//EN" "http://www.w3.org/TR/2001/REC-SVG-20010904/DTD/svg10.dtd">
<svg version="1.0" xmlns="http://www.w3.org/2000/svg" width="96px" height="96px" viewBox="0 0 960 960" preserveAspectRatio="xMidYMid meet">
<g id="layer101" fill="#bf360c" stroke="none">
<path d="M204 810 c-32 -10 -124 -85 -124 -101 0 -5 43 -9 96 -9 88 0 96 -2 89 -17 -56 -142 -107 -342 -120 -475 l-7 -68 302 0 302 0 -6 53 c-4 28 -9 69 -12 89 l-6 37 35 -11 c29 -9 42 -7 73 8 82 40 91 134 21 202 -37 36 -121 72 -167 72 -31 0 -50 24 -64 83 l-6 27 95 0 c52 0 95 4 95 9 0 12 -63 67 -103 88 -27 15 -63 18 -247 20 -118 1 -229 -2 -246 -7z m573 -281 c47 -23 83 -72 83 -113 0 -39 -41 -76 -84 -76 -42 0 -62 18 -75 68 -6 20 -17 60 -26 87 -8 28 -15 54 -15 59 0 12 69 -2 117 -25z"/>
</g>
<g id="layer102" fill="#ff3d00" stroke="none">
<path d="M251 643 c-34 -64 -93 -308 -106 -436 l-7 -67 301 0 c166 0 301 3 301 8 0 98 -60 367 -103 465 l-20 47 -178 0 c-160 0 -179 -2 -188 -17z"/>
</g>
<g id="layer103" fill="#cfd8dc" stroke="none">
<path d="M204 810 c-32 -10 -124 -85 -124 -101 0 -5 149 -9 360 -9 206 0 360 4 360 9 0 12 -63 67 -103 88 -27 15 -63 18 -247 20 -118 1 -229 -2 -246 -7z"/>
</g>


</svg>